<svg xmlns="http://www.w3.org/2000/svg" xmlns:xlink="http://www.w3.org/1999/xlink" width="57.585" height="15.462" viewBox="0 0 57.585 15.462">
  <defs>
    <linearGradient id="linear-gradient" x1="0.062" y1="0.258" x2="1" y2="1" gradientUnits="objectBoundingBox">
      <stop offset="0" stop-color="#eb197d"/>
      <stop offset="1" stop-color="#7504f2"/>
    </linearGradient>
  </defs>
  <path id="Logo" d="M3.3,0H.49L5.611-14.545H8.864L13.991,0H11.179L7.294-11.562H7.18Zm.092-5.7h7.67v2.116H3.395Zm14.972-8.842V0H15.8V-14.545ZM21.009,0V-10.909H23.58V0ZM22.3-12.457a1.493,1.493,0,0,1-1.051-.408,1.294,1.294,0,0,1-.44-.984,1.3,1.3,0,0,1,.44-.991,1.493,1.493,0,0,1,1.051-.408,1.489,1.489,0,0,1,1.055.408,1.306,1.306,0,0,1,.437.991,1.3,1.3,0,0,1-.437.984A1.489,1.489,0,0,1,22.3-12.457Zm13.665,1.548L32.081,0H29.24L25.355-10.909H28.1l2.507,8.1h.114l2.514-8.1ZM42.195.213a5.575,5.575,0,0,1-2.83-.685,4.584,4.584,0,0,1-1.829-1.946A6.5,6.5,0,0,1,36.9-5.391a6.487,6.487,0,0,1,.643-2.958,4.839,4.839,0,0,1,1.8-1.989,5.078,5.078,0,0,1,2.72-.714,5.591,5.591,0,0,1,1.907.323,4.381,4.381,0,0,1,1.591,1,4.691,4.691,0,0,1,1.09,1.715,6.931,6.931,0,0,1,.4,2.475v.788H38.1V-6.484h6.477a2.787,2.787,0,0,0-.32-1.317,2.338,2.338,0,0,0-.87-.913,2.475,2.475,0,0,0-1.3-.334,2.522,2.522,0,0,0-1.385.38,2.649,2.649,0,0,0-.927.994,2.857,2.857,0,0,0-.337,1.346v1.513a3.533,3.533,0,0,0,.348,1.63,2.455,2.455,0,0,0,.973,1.037,2.888,2.888,0,0,0,1.463.359,3.047,3.047,0,0,0,1.016-.16,2.211,2.211,0,0,0,.788-.472,1.982,1.982,0,0,0,.5-.774l2.4.27a3.735,3.735,0,0,1-.863,1.658A4.2,4.2,0,0,1,44.453-.174,6.153,6.153,0,0,1,42.195.213ZM57.841-8.026,55.5-7.77a1.913,1.913,0,0,0-.344-.668,1.76,1.76,0,0,0-.657-.5,2.381,2.381,0,0,0-1.009-.192,2.447,2.447,0,0,0-1.346.348,1.022,1.022,0,0,0-.536.9.94.94,0,0,0,.352.774,2.939,2.939,0,0,0,1.19.49l1.861.4a4.723,4.723,0,0,1,2.3,1.058,2.529,2.529,0,0,1,.763,1.9,2.963,2.963,0,0,1-.6,1.815A3.886,3.886,0,0,1,55.831-.227a6.205,6.205,0,0,1-2.415.44,5.58,5.58,0,0,1-3.224-.842,3.357,3.357,0,0,1-1.456-2.347l2.507-.241A1.766,1.766,0,0,0,51.967-2.1a2.517,2.517,0,0,0,1.442.376A2.591,2.591,0,0,0,54.883-2.1a1.1,1.1,0,0,0,.558-.93.973.973,0,0,0-.359-.774,2.556,2.556,0,0,0-1.112-.469l-1.861-.391a4.41,4.41,0,0,1-2.322-1.1,2.694,2.694,0,0,1-.746-1.971,2.8,2.8,0,0,1,.55-1.751,3.59,3.59,0,0,1,1.555-1.151,6.049,6.049,0,0,1,2.3-.408,4.983,4.983,0,0,1,3.022.817A3.44,3.44,0,0,1,57.841-8.026Z" transform="translate(-0.49 15.249)" fill="url(#linear-gradient)"/>
</svg>
